# xmcd
#
# Track frame offsets:
#	150
#	29040
#	43275
#	77522
#	94257
#	115202
#	140500
#	165645
#	180287
#	197435
#	215435
#	239382
#	257020
#	278680
#	296182
#
# Disc length: 4252 seconds
#
# Revision: 1
# Processed by: cddbd v1.5.2PL0 Copyright (c) Steve Scherf et al.
# Submitted via: EasyCDDAExtractor 15.2.5.1
#
DISCID=d9109a0f
DTITLE=Various Artist - From Hell To Breakfast
DYEAR=2002
DGENRE=Country
TTITLE0=Terry Allen - Gone To Texas
TTITLE1=The Gourds - El Paso
TTITLE2=Robert Earl Keen - Dreadful Selfish Crime
TTITLE3=Guy Clark - Sis Draper
TTITLE4=Townes Van Zandt - For The Sake Of The Song
TTITLE5=James McMurtry - Jaws Of Life
TTITLE6=Lee Roy Parnell - Cross'in Over
TTITLE7=Guy Clark - Old Friends
TTITLE8=Rodney Crowell - Topsy Turvey
TTITLE9=The Gords - Ghosts Of Hallelujah
TTITLE10=Bad Livers - Lumpy, Beanpole and Dirt
TTITLE11=Terry Allen - Amarillo Highway
TTITLE12=Austin Lounge Lizards - Old Blevins
TTITLE13=Townes Van Zandt - Snow'in On Raton
TTITLE14=Robert Earl Keen - The Road Goes On Forever
EXTD=ID3G: 2
EXTT0=
EXTT1=
EXTT2=
EXTT3=
EXTT4=
EXTT5=
EXTT6=
EXTT7=
EXTT8=
EXTT9=
EXTT10=
EXTT11=
EXTT12=
EXTT13=
EXTT14=
PLAYORDER=
